<?xml version="1.0" encoding="utf-8"?>
<!-- Generator: Adobe Illustrator 18.0.0, SVG Export Plug-In . SVG Version: 6.00 Build 0)  -->
<!DOCTYPE svg PUBLIC "-//W3C//DTD SVG 1.1//EN" "http://www.w3.org/Graphics/SVG/1.1/DTD/svg11.dtd">
<svg version="1.1" id="Layer_1" xmlns="http://www.w3.org/2000/svg" xmlns:xlink="http://www.w3.org/1999/xlink" x="0px" y="0px"
	 viewBox="0 0 960 560" enable-background="new 0 0 960 560" xml:space="preserve">
<g>
	<path fill="#8EC644" d="M561.3,95.4c15.1,0,30.2,0,45,0.3c20.5,0.3,36.8,14.3,40.5,33.9c0.6,2.9,0.6,6,0.6,8.8c0,39.3,0,79,0,118.3
		c0,21.4-12.3,37.1-33.1,41.9c-3.7,0.9-5.4,2.3-5.1,6.3c0.3,9.4,0,18.8,0,27.9c0,1.7,0,3.1,0,4.8c-0.9,7.4-8.3,10.5-14.3,6.3
		c-2.6-2-4.6-4.3-6.8-6.6c-11.4-11.1-23.1-22-34.5-33.4c-3.1-3.1-6.3-4.6-10.8-4.6c-32.8,0.3-65.6,0-98.4,0
		c-13.7,0-25.4-4.6-34.5-15.4c-4.3-4.8-6.6-10.8-8.6-16.8c0-4.3,0-8.6-0.3-12.8c-0.3-3.7,0.9-7.4-0.9-10.8c0-2.9,0.3-5.4,0.3-8.3
		c0-31.9,0-63.9,0-95.8c0-5.1,0.3-10,2-14.8c5.4-17.7,20.5-29.4,39.3-29.4c31.1-0.3,62.4,0,93.5,0c2.9,0,5.4-0.3,8.3-0.3
		C549.4,96,555.3,96.2,561.3,95.4z M543.4,113.6c-2.9,0-5.4-0.3-8.3-0.3c-30.8,0-61.6,0-92.4,0c-11.1,0-19.4,5.7-23.1,15.1
		c-1.4,3.7-1.7,7.4-1.7,11.4c0,31.1,0,62.2,0,92.9c0,1.7,0.3,3.7,0.3,5.4c-0.6,6-1.1,11.7,0.6,17.7c-1.4,8,1.7,14.3,7.4,19.7
		c5.1,4.8,11.4,6.3,18.2,6.3c34.8,0,69.3,0,104.1,0c5.4,0,9.4,1.4,13.4,5.4c8.3,8.6,17.1,16.5,25.7,24.8c1.1,0.9,1.7,2.9,4,2
		c0-1.1,0.3-2.3,0.3-3.4c0-6.3,0-12.3,0-18.5c0.3-7.1,3.1-10,10-10.3c1.7,0,3.7,0,5.4,0c12.5-1.1,22.5-10.3,22.5-22.5
		c0.3-41.3,0.3-82.7,0-123.7c0-12-10-21.7-22-22c-15.4-0.3-31.1,0-46.5,0C555.3,113.3,549.4,113.3,543.4,113.6z"/>
	<path fill="#2BABE1" d="M561.3,95.4c-6,0.9-12,0.6-17.7,0c-0.9-16.8-10-25.4-26.5-25.4c-52.7,0-105.8,0-158.5,0
		c-2.9,0-5.4,0-8.3,0.6c-11.4,3.1-18.5,12-18.5,24.8c0,39.3,0,78.4,0,117.8c0,1.1,0,2.3,0,3.4c1.1,12.3,10.8,21.4,23.1,22
		c1.7,0,3.7,0,5.4,0c6.3,0.3,9.4,3.4,9.7,10c0.3,5.7,0,11.4,0,17.1c0,1.7-0.6,3.7,0.9,5.7c4.8-2.6,7.4-7.4,11.7-10
		c2.3,0.6,3.4,2.6,4.6,4.8c1.7,3.1,3.1,6.6,4.8,9.7c-7.7,9.1-16.8,16.5-25.1,24.8c-2.6,2.6-6.3,2.9-9.4,1.1
		c-3.4-1.7-5.1-4.6-5.1-8.3c0-10.3,0-20.5,0-30.8c0-6,0-6-6-7.4c-19.7-4.8-32.2-20.8-32.2-41.3c0-39.9,0-79.8,0-119.8
		c0-24,18-41.9,41.9-41.9c53.3,0,106.6,0.6,160-0.3C539.7,51.8,561.3,68.6,561.3,95.4z"/>
	<path fill="#8EC643" d="M662.3,449.8c7.7,3.7,10,10.3,10.5,17.7c0.6,6.8,0.6,13.7,0,20.5c-1.1,10-5.7,15.1-15.4,17.7
		c-5.1,1.4-10.3,2-15.7,2c-28.5,0-57,0-85.5,0c-5.4,0-5.7,0-5.7-5.7c0-33.6,0-67.6,0-101.2c0-5.4,0-5.4,5.1-5.4
		c28.8,0,57.9,0,86.7,0c4.6,0,9.1,0.6,13.4,1.7c8.3,2.3,13.4,7.7,14.8,16.3c1.4,8.3,1.1,16.3,0,24.5
		C670.3,443.2,666.5,446.7,662.3,449.8z M574.2,451.5c0,9.7,0,19.1,0,28.8c0,6.8,0,6.8,6.6,6.8c18.8,0,37.4,0,56.2,0
		c2.9,0,5.4-0.3,8-0.9c4.3-1.1,5.7-2.6,6-7.1c0.3-3.7,0.3-7.4,0-10.8c-0.3-5.7-2.6-7.7-8-8.3c-3.7-0.3-7.4,0-10.8,0
		c-9.1,0-18.2,0-27.4,0c-1.7,0-4.3,0.6-4.3-2c-0.3-5.1-2-11.1,0.9-15.4c1.7-2.9,7.1-0.9,11.1-1.1c2-0.3,4,0,6.3,0c7.4,0,14.5,0,22,0
		c7.7-0.3,9.4-2,9.7-10c0-1.7,0-3.1,0-4.8c0-8.3-1.7-10.3-10-10.3c-20.2-0.3-40.5,0-60.7-0.3c-3.7,0-4.8,1.4-4.6,4.8
		C574.2,431,574.2,441.2,574.2,451.5z"/>
	<path fill="#2BABE1" d="M67.2,395.3c13.4,0,26.8,0,40.5,0c4.8,0,4.8,0,5.1,4.8c0,4-0.3,8.3,0,12.3c0.3,3.4-1.1,4.3-4.3,4.3
		c-8.6-0.3-16.8,0-25.4,0c-15.7,0-31.4,0-47.3,0c-2.3,0-4.6,0-6.8,0.6c-4.6,0.9-6.3,2.6-6.6,7.4c-1.1,14,0.9,16.5,14.3,16.5
		c14.8-0.3,29.7,0,44.5,0c5.1,0,10,0.3,14.8,1.7c8.3,2.3,13.7,7.1,15.4,15.7c2,10.8,2,21.7-0.3,32.5c-1.4,7.1-6,11.7-12.8,14
		c-5.4,2-11.1,2.9-16.8,2.9c-25.1,0-50.2,0-75.3,0c-6,0-6,0-6-6.3c0-3.1,0-6.3,0-9.7c0-5.7,0-6,6.3-6c23.4,0,47,0,70.4,0
		c12.5,0,14.3-1.7,14-14.3c-0.3-7.7-2.6-10.3-10.3-10.5c-16.8-0.3-33.6-0.3-50.8,0c-4,0-8.3-0.3-12.3-1.1c-9.7-2-15.1-7.4-16.5-17.4
		c-1.4-9.4-1.4-19.1,0.6-28.5c2-10,8.3-16,18.2-18c3.7-0.9,7.7-0.9,11.7-0.9C43.6,395.3,55.2,395.3,67.2,395.3z"/>
	<path fill="#8DC643" d="M746.1,395.3c7.4,0,15.1,0,22.5,0c4,0,8.3,0.3,12.3,0.9c14.8,2.6,22,9.7,24.2,24.5
		c0.6,3.7,0.9,7.7,0.9,11.7c0,12.8,0,25.7,0,38.2c0,4.6-0.6,9.1-1.4,13.7c-2,11.1-8.3,18.5-19.4,21.4c-6,1.4-12,2-18.2,2
		c-13.7,0-27.4,0-41.1,0c-6.6,0-13.1-0.6-19.7-2.6c-9.7-2.9-15.4-9.1-18-18.8c-1.1-5.1-1.7-10.3-1.7-15.7c0-13.1,0-25.9,0-39.1
		c0-5.4,0.6-10.8,2-16.3c2.3-8.6,7.4-14.5,16-17.4c6.3-2.3,12.8-2.9,19.4-2.9C731.6,395.3,739,395.3,746.1,395.3z M746.1,417.3
		L746.1,417.3c-6.6-0.3-13.1-0.3-20-0.3c-0.9,0-1.7,0-2.9,0.3c-9.4,0.6-12.8,4-13.1,13.1c-0.3,14.3-0.3,28.2,0,42.5
		c0.3,8.6,3.4,11.7,12,12.8c1.7,0.3,3.1,0.3,4.8,0.3c12.8,0,25.4,0,38.2,0c2.6,0,4.8-0.3,7.4-0.9c5.4-0.9,8.6-4.3,9.1-9.7
		c0.3-1.1,0.6-2.3,0.6-3.4c0.3-14.5,1.1-29.1-0.6-43.6c-0.9-7.7-4.3-10.8-12-11.1C762.1,417,754.1,417.3,746.1,417.3z"/>
	<path fill="#2AABE1" d="M184.7,395.3c7.4,0,15.1,0,22.5,0c4,0,7.7,0.3,11.7,0.9c15.7,2.3,22.8,9.4,25.7,24.8
		c0.6,3.7,0.9,7.7,0.9,11.7c0,12.5,0,25.1,0,37.6c0,5.1-0.6,10.5-1.7,15.7c-2.3,10.3-8.6,16.8-18.8,19.7c-5.4,1.4-11.1,2.3-16.8,2.3
		c-15.1,0-30.2,0-45,0c-5.4,0-10.8-0.9-16.3-2c-10.5-2.9-16.8-9.4-19.4-20c-1.1-5.4-1.4-10.8-1.4-16.3c0-12,0-23.7,0-35.6
		c0-6.3,0.3-12.3,2-18.2c2.3-8.6,7.4-14.3,16-17.1c6.3-2.3,12.8-2.6,19.4-2.9C170.7,395.3,177.6,395.3,184.7,395.3z M185.3,417.3
		L185.3,417.3c-8.3,0-16.5-0.3-24.5,0.3c-7.1,0.3-10.3,3.7-11.1,10.5c-0.3,2-0.3,4-0.3,6.3c0,11.4,0,22.8,0,34.2
		c0,14,3.4,17.4,17.4,17.4c12.5,0,25.1,0,37.6,0c13.4,0,17.1-3.7,17.7-16.8c0-0.9,0-1.7,0-2.9c0-10,0-20,0-29.9
		c0-2.6-0.3-5.1-0.6-7.4c-1.4-8.3-4.3-11.1-12.8-11.4C200.9,417,193,417.3,185.3,417.3z"/>
	<path fill="#2BABE1" d="M413.9,451.8c0-16.5,0-33.4,0-49.9c0-6.6,0-6.6,6.3-6.6c27.1,0,54.2,0,81.3,0c5.1,0,10.5,0.6,15.7,2
		c9.7,2.6,16,8.8,18,18.5c2.6,13.4,2.6,26.8,0.3,40.2c-1.7,9.4-7.7,15.1-17.1,17.4c-6.8,1.7-14,2-21.1,2c-17.7,0-35.1,0-52.7,0
		c-6.8,0-6.8,0-6.8,6.8c0,6.3,0,12.3,0,18.5c0,8-0.3,6.8-7.1,6.8c-3.4,0-6.8,0-10.3,0c-6,0-6,0-6-6
		C413.9,485.1,413.9,468.3,413.9,451.8z M471.2,454.9c4.6,0,9.1,0,13.7,0c6,0,12,0,17.7-0.3c6.6-0.6,8.8-2.9,10-9.1
		c1.1-6.3,0.9-12.5-0.3-19.1c-0.9-5.1-4.3-7.7-9.1-8.6c-1.7-0.3-3.7-0.6-5.4-0.6c-18.5,0-37.1,0-55.3,0c-5.1,0-5.1,0.3-5.1,4.8
		c0,9.4,0,18.8,0,27.9c0,4.6,0.3,4.8,5.1,4.8C452.1,454.9,461.8,454.9,471.2,454.9z"/>
	<path fill="#8EC643" d="M958.2,396.8c-10,9.4-19.7,18.8-29.7,28.2c-7.1,6.8-14.3,13.4-21.4,20.2c-4.3,4-4.3,4.3,0,8.6
		c16.3,16.3,32.8,32.5,49,48.8c1.1,1.1,2.9,2.3,3.7,4c-0.9,2-2.9,1.1-4,1.1c-7.7,0-15.4,0-23.4,0c-3.7,0-6.3-1.1-8.8-3.7
		c-11.4-11.7-23.1-23.4-34.8-34.8c-4.3-4.3-4.3-4-8.6,0c-11.4,11.4-22.5,22.5-33.9,33.9c-3.1,3.1-6.3,4.8-10.8,4.6
		c-8.3-0.3-16.3,0-25.1,0c0.9-3.4,3.4-4.8,5.1-6.8c15.4-14.8,30.8-29.9,46.2-44.8c1.7-1.7,3.1-3.1,4.8-4.8c1.4-1.4,1.4-2.9,0-4
		c-0.9-0.9-1.7-1.4-2.6-2.3c-15.7-15.1-31.6-30.2-47.3-45.3c-1.1-1.1-2.6-1.7-2.6-4.3c10,0,20,0,29.9,0c2.9,0,4.6,2,6.3,3.7
		c10.5,10.5,20.8,21.1,31.4,31.6c4.3,4.3,4.3,4.3,8.6,0c11.1-10.5,22.5-21.4,33.6-32.2c2.6-2.3,5.1-3.4,8.6-3.4
		c8.3,0.3,16.8,0,25.1,0C957.9,395.6,958.2,396.2,958.2,396.8z"/>
	<path fill="#2AABE1" d="M403.4,507.7c-8,0-15.7,0-23.4,0c-2.9,0-4-1.7-5.1-3.7c-3.4-6-7.1-11.7-10.3-17.7c-1.7-3.1-3.7-4.6-7.4-4.6
		c-20.8,0.3-41.3,0.3-62.2,0c-3.4,0-5.4,1.1-7.1,4c-3.1,6-6.8,11.7-10,18c-1.7,2.9-3.7,4.3-7.1,4c-7.1-0.3-14,0-21.1,0
		c-1.1-2.3,0.3-3.4,1.1-4.6c19.1-32.8,38.5-65.6,57.6-98.7c4.6-7.7,10.3-12.3,20-11.7c6.8,0.6,11.4,4,14.8,9.4
		c3.4,5.1,6.3,10.5,9.4,16c16.3,27.7,32.2,55.6,48.5,83.3C402,503.1,403.4,504.8,403.4,507.7z M301.3,462.1c17.1,0,32.8,0,48.8,0
		c-2.6-7.1-21.1-39.1-24.5-42.5C317.6,433.5,309.6,447.2,301.3,462.1z"/>
	<path fill="#2792BE" d="M392,275.6c-1.7-3.1-3.1-6.6-4.8-9.7c-1.1-2-2-4-4.6-4.8c5.4-6,11.4-11.7,17.4-17.4
		c1.7,3.4,0.6,7.1,0.9,10.8c0.3,4.3,0.3,8.6,0.3,12.8C398,269.9,395.7,273.6,392,275.6z"/>
	<path fill="none" d="M400.2,243.9c-6.3,5.4-12,11.1-17.4,17.4c-4.3,2.6-7.1,7.4-11.7,10c-1.4-2-0.9-4-0.9-5.7c0-5.7,0-11.4,0-17.1
		c-0.3-6.6-3.4-9.7-9.7-10c-1.7,0-3.7,0-5.4,0c-12.3-0.6-22-9.7-23.1-22c0-1.1,0-2.3,0-3.4c0-39.3,0-78.4,0-117.8
		c0-12.8,6.8-21.7,18.5-24.8c2.6-0.6,5.4-0.6,8.3-0.6c52.7,0,105.8,0,158.5,0c16.5,0,25.7,8.8,26.5,25.4c-2.9,0-5.4,0.3-8.3,0.3
		c-31.1,0-62.4,0-93.5,0c-18.5,0-33.9,11.7-39.3,29.4c-1.4,4.8-2,9.7-2,14.8c0,31.9,0,63.9,0,95.8
		C400.5,238.5,400.2,241.1,400.2,243.9z"/>
	<path fill="none" d="M561.3,113.6c15.4,0,31.1-0.6,46.5,0c12,0.3,22,10,22,22c0.3,41.3,0.3,82.7,0,123.7c0,12-10,21.4-22.5,22.5
		c-1.7,0.3-3.7,0-5.4,0c-6.8,0.3-9.7,3.1-10,10.3c0,6.3,0,12.3,0,18.5c0,1.1,0,2.3-0.3,3.4c-2.3,0.9-3.1-1.1-4-2
		c-8.6-8.3-17.4-16.3-25.7-24.8c-3.7-4-8-5.4-13.4-5.4c-34.8,0.3-69.3,0-104.1,0c-6.8,0-13.1-1.4-18.2-6.3
		c-5.7-5.1-8.8-11.7-7.4-19.7c4.6,0,9.4-0.3,14-0.3c0.9,0,1.7,0.3,2.9,0.3c28.5,0,57,0,85.5,0c2.3,0,4.6-0.3,6.8-0.6
		c20.2-4.3,33.4-20.8,33.4-42.5C561.3,179.8,561.3,146.7,561.3,113.6z"/>
	<path fill="none" d="M418.5,238.5c0-1.7-0.3-3.7-0.3-5.4c0-31.1,0-62.2,0-92.9c0-4,0.3-7.7,1.7-11.4c3.7-9.4,12-15.1,23.1-15.1
		c30.8,0,61.6,0,92.4,0c2.9,0,5.4,0.3,8.3,0.3c0,32.8,0,65.6,0,98.4c0,8.3-1.7,16-9.4,20.8c0-12.8,0-25.9-0.3-38.8
		c0-1.7,0-3.7-0.3-5.4c-0.6-4.3-2.9-6.3-7.4-6.6c-5.1-0.3-10.3-0.9-13.7,4.6c-6.8-6-14.3-6.3-19.4-0.6c4,1.4,9.4-0.6,12,4.6
		c-0.9,0.9-1.4,0.3-2.6,0.3c-8-1.7-16-4.8-22,4c-1.4,2-2.9,0.3-3.7-0.9c-2-2.6-3.7-5.1-7.7-4.6c-2.3,0.3-4.6,0-6.8,0
		c-6.8,0.6-10.3,4.3-10.3,11.1c-0.3,9.1-0.3,18.2,0,27.4c0,4.8,0.3,4.8,4.8,5.1c14.8,0,29.7,0,44.5,0c5.1,0,5.4,0,5.4-5.4
		c-0.3-12.3,1.1-24.8-1.4-37.1c4.3,2,4.3,6,4.3,10c0,9.1,0,18.2,0,27.4c0,5.1,0,5.1,5.4,5.1c6.3,0,12.8,0,19.1,0
		c-4.6,5.1-10.5,5.7-16.8,5.7c-27.7,0-55,0-82.7,0c-2.6,0-4.8,0.3-7.4,0.3C424.5,238.8,421.3,238.5,418.5,238.5z M498.6,167.8
		c-1.1-1.1-0.9-2.9-1.4-4.6c-2.3-9.1-10.5-14.8-20-14c-8.6,0.9-15.7,8.3-16,16.8c-0.6,10,5.7,17.4,15.7,19.4
		c8.6,1.4,17.4-4.3,20-12.8C497.5,171.2,497.2,169.2,498.6,167.8c1.1,1.7,1.7,4,3.1,5.7c4,5.4,10.3,7.1,16.3,4.6
		c6-2.3,9.7-8.6,8.6-14.5c-1.1-6.8-6-11.7-12.5-12.3c-6-0.6-12,3.1-14.3,9.1C498.9,163,498.6,165.2,498.6,167.8z M446.1,186.3
		c-5.1-4.8-5.1-4.8-11.7-4.6c-6.6,0.3-8.6,2.3-8.8,8.6c0,4,0,8.3,0,12.3c0,8-0.6,16-0.6,24c0,6,0,6,6.3,6c4,0,8.3,0,12.3,0
		c5.7,0,5.7,0,5.7-5.7c0-8.8,0-17.7,0-26.5c0.3-8.3,4-12.5,12-14c1.4-0.3,3.1,0.3,4.3-1.1C460.4,180.4,452.7,180.6,446.1,186.3z
		 M432.5,165.2c0,8,5.7,14,13.4,14.3c7.4,0.3,14.3-6,14.3-13.4c0.3-8-6.3-14.5-14-14.5C438.7,151.3,432.7,157.5,432.5,165.2z"/>
	<path fill="#2CABE1" d="M534.2,232.8c7.7-4.8,9.4-12.5,9.4-20.8c0-32.8,0-65.6,0-98.4c6-0.6,12-0.3,17.7,0c0,33.1,0,66.1,0,99.2
		c0,21.7-13.1,38.2-33.4,42.5c-2.3,0.6-4.6,0.6-6.8,0.6c-28.5,0-57,0-85.5,0c-0.9,0-1.7-0.3-2.9-0.3c0.3-3.4-0.6-6.6-2.3-9.7
		c-1.4-2.3-2.3-4.8-3.4-7.4c2.6,0,4.8-0.3,7.4-0.3c27.7,0,55,0,82.7,0C523.7,238.5,529.7,237.9,534.2,232.8L534.2,232.8z"/>
	<path fill="#2792BE" d="M427.3,238.8c1.1,2.6,2,4.8,3.4,7.4c1.7,3.1,2.6,6.3,2.3,9.7c-4.6,0-9.4,0.3-14,0.3
		c-1.4-6-0.9-11.7-0.6-17.7C421.3,238.5,424.5,238.8,427.3,238.8z"/>
	<path fill="none" d="M574.2,451.5c0-10.3,0-20.5,0-30.8c0-3.4,1.1-4.8,4.6-4.8c20.2,0.3,40.5,0,60.7,0.3c8.3,0,10,2,10,10.3
		c0,1.7,0,3.1,0,4.8c-0.3,8-1.7,9.7-9.7,10c-7.4,0.3-14.5,0-22,0c-2,0-4,0-6.3,0c-3.7,0.3-9.1-2-11.1,1.1
		c-2.6,4.3-0.9,10.3-0.9,15.4c0,2.6,2.6,2,4.3,2c9.1,0,18.2,0,27.4,0c3.7,0,7.4,0,10.8,0c5.4,0.3,7.7,2.6,8,8.3
		c0.3,3.7,0.3,7.4,0,10.8c-0.3,4.6-1.4,6-6,7.1c-2.6,0.6-5.4,0.9-8,0.9c-18.8,0-37.4,0-56.2,0c-6.6,0-6.6,0-6.6-6.8
		C574.2,470.6,574.2,460.9,574.2,451.5z"/>
	<path fill="none" d="M746.1,417.3c8,0,16-0.3,24,0c8,0.3,11.1,3.4,12,11.1c1.7,14.5,0.9,29.1,0.6,43.6c0,1.1-0.3,2.3-0.6,3.4
		c-0.9,5.4-3.7,8.6-9.1,9.7c-2.6,0.6-4.8,0.9-7.4,0.9c-12.8,0-25.4,0-38.2,0c-1.7,0-3.1,0-4.8-0.3c-8.6-1.1-11.7-4.3-12-12.8
		c-0.3-14.3-0.3-28.2,0-42.5c0.3-9.1,3.7-12.5,13.1-13.1c0.9,0,1.7-0.3,2.9-0.3C733,417.3,739.5,417.3,746.1,417.3L746.1,417.3z"/>
	<path fill="none" d="M185.3,417.3c7.7,0,15.4-0.3,23.1,0c8.3,0.3,11.1,3.1,12.8,11.4c0.6,2.6,0.6,4.8,0.6,7.4c0,10,0,20,0,29.9
		c0,0.9,0,1.7,0,2.9c-0.6,13.1-4.3,16.8-17.7,16.8c-12.5,0-25.1,0-37.6,0c-14,0-17.1-3.4-17.4-17.4c0-11.4,0-22.8,0-34.2
		c0-2,0-4,0.3-6.3c0.9-6.8,4-10.3,11.1-10.5C169,417.3,177.3,417.6,185.3,417.3L185.3,417.3z"/>
	<path fill="none" d="M471.2,454.9c-9.7,0-19.1,0-28.8,0c-5.1,0-5.1-0.3-5.1-4.8c0-9.4,0-18.8,0-27.9c0-4.6,0.3-4.8,5.1-4.8
		c18.5,0,37.1,0,55.3,0c1.7,0,3.7,0,5.4,0.6c4.8,0.9,8.3,3.4,9.1,8.6c1.1,6.3,1.4,12.8,0.3,19.1c-1.1,6.3-3.7,8.6-10,9.1
		c-6,0.6-12,0.3-17.7,0.3C480.4,454.9,475.8,454.9,471.2,454.9z"/>
	<path fill="none" d="M301.3,462.1c8.3-14.8,16.3-28.5,24.2-42.5c3.7,3.1,22.2,35.4,24.5,42.5C334.1,462.1,318.4,462.1,301.3,462.1z
		"/>
	<path fill="#8DC643" d="M505.5,190.3c2.6,12.3,1.4,24.8,1.4,37.1c0,5.1,0,5.4-5.4,5.4c-14.8,0-29.7,0-44.5,0
		c-4.8,0-4.8-0.3-4.8-5.1c0-9.1,0-18.2,0-27.4c0-6.8,3.4-10.5,10.3-11.1c2.3-0.3,4.6,0.3,6.8,0c4-0.6,5.7,2.3,7.7,4.6
		c1.1,1.1,2.3,2.9,3.7,0.9c6-8.8,14.3-5.4,22-4C504,190.9,504.6,191.2,505.5,190.3L505.5,190.3z"/>
	<path fill="#2CABE1" d="M505.5,190.6c-2.3-5.4-7.7-3.1-12-4.6c5.1-5.7,12.5-5.4,19.4,0.6c3.1-5.1,8.6-4.8,13.7-4.6
		c4.6,0.3,6.6,2.3,7.4,6.6c0.3,1.7,0.3,3.7,0.3,5.4c0,12.8,0,25.9,0.3,38.8l0,0c-6.3,0-12.8,0-19.1,0c-5.4,0-5.4,0-5.4-5.1
		c0-9.1,0-18.2,0-27.4C509.7,196.6,509.4,192.6,505.5,190.6C505.5,190.3,505.5,190.6,505.5,190.6z"/>
	<path fill="#2BABE1" d="M446.1,186.3c6.6-5.7,14.3-6.3,19.7-1.1c-1.1,1.4-2.9,0.9-4.3,1.1c-8,1.4-12,5.7-12,14
		c-0.3,8.8,0,17.7,0,26.5c0,5.4,0,5.7-5.7,5.7c-4,0-8.3,0-12.3,0c-6,0-6.3,0-6.3-6c0-8,0.3-16,0.6-24c0-4,0-8.3,0-12.3
		c0.3-6.6,2.3-8.3,8.8-8.6C441,181.8,441,181.8,446.1,186.3z"/>
	<path fill="#8EC643" d="M498.6,167.8c-1.4,1.4-0.9,3.4-1.4,5.1c-2.6,8.6-11.4,14.3-20,12.8c-10-1.7-16-9.4-15.7-19.4
		c0.3-8.6,7.4-16,16-16.8c9.4-1.1,17.7,4.8,20,14C497.8,165,497.5,166.7,498.6,167.8L498.6,167.8z"/>
	<path fill="#2CABE1" d="M498.6,167.8L498.6,167.8c0-2.3,0.3-4.8,1.1-7.1c2.3-6,8.3-10,14.3-9.1c6.6,0.9,11.7,5.4,12.5,12.3
		c0.9,6-2.9,12.3-8.6,14.5c-6,2.3-12.5,0.6-16.3-4.6C500.3,171.8,499.5,169.8,498.6,167.8z"/>
	<path fill="#2CABE1" d="M432.5,165.2c0-7.7,6.3-14,13.7-14c7.7,0,14.3,6.8,14,14.5c-0.3,7.4-6.8,13.7-14.3,13.4
		C438.2,179.2,432.5,172.9,432.5,165.2z"/>
</g>
</svg>
