<?xml version="1.0" encoding="utf-8"?>
<!-- Generator: Adobe Illustrator 18.0.0, SVG Export Plug-In . SVG Version: 6.00 Build 0)  -->
<!DOCTYPE svg PUBLIC "-//W3C//DTD SVG 1.1//EN" "http://www.w3.org/Graphics/SVG/1.1/DTD/svg11.dtd">
<svg version="1.1" id="Layer_1" xmlns="http://www.w3.org/2000/svg" xmlns:xlink="http://www.w3.org/1999/xlink" x="0px" y="0px"
	 viewBox="0 0 336.7 159.8" enable-background="new 0 0 336.7 159.8" xml:space="preserve">
<g>
	<path fill="#8EC644" d="M196.8,15.2c5.3,0,10.6,0,15.8,0.1c7.2,0.1,12.9,5,14.2,11.9c0.2,1,0.2,2.1,0.2,3.1c0,13.8,0,27.7,0,41.5
		c0,7.5-4.3,13-11.6,14.7c-1.3,0.3-1.9,0.8-1.8,2.2c0.1,3.3,0,6.6,0,9.8c0,0.6,0,1.1,0,1.7c-0.3,2.6-2.9,3.7-5,2.2
		c-0.9-0.7-1.6-1.5-2.4-2.3c-4-3.9-8.1-7.7-12.1-11.7c-1.1-1.1-2.2-1.6-3.8-1.6c-11.5,0.1-23,0-34.5,0c-4.8,0-8.9-1.6-12.1-5.4
		c-1.5-1.7-2.3-3.8-3-5.9c0-1.5,0-3-0.1-4.5c-0.1-1.3,0.3-2.6-0.3-3.8c0-1,0.1-1.9,0.1-2.9c0-11.2,0-22.4,0-33.6
		c0-1.8,0.1-3.5,0.7-5.2c1.9-6.2,7.2-10.3,13.8-10.3c10.9-0.1,21.9,0,32.8,0c1,0,1.9-0.1,2.9-0.1C192.6,15.4,194.7,15.5,196.8,15.2z
		 M190.5,21.6c-1,0-1.9-0.1-2.9-0.1c-10.8,0-21.6,0-32.4,0c-3.9,0-6.8,2-8.1,5.3c-0.5,1.3-0.6,2.6-0.6,4c0,10.9,0,21.8,0,32.6
		c0,0.6,0.1,1.3,0.1,1.9c-0.2,2.1-0.4,4.1,0.2,6.2c-0.5,2.8,0.6,5,2.6,6.9c1.8,1.7,4,2.2,6.4,2.2c12.2,0,24.3,0,36.5,0
		c1.9,0,3.3,0.5,4.7,1.9c2.9,3,6,5.8,9,8.7c0.4,0.3,0.6,1,1.4,0.7c0-0.4,0.1-0.8,0.1-1.2c0-2.2,0-4.3,0-6.5c0.1-2.5,1.1-3.5,3.5-3.6
		c0.6,0,1.3,0,1.9,0c4.4-0.4,7.9-3.6,7.9-7.9c0.1-14.5,0.1-29,0-43.4c0-4.2-3.5-7.6-7.7-7.7c-5.4-0.1-10.9,0-16.3,0
		C194.7,21.5,192.6,21.5,190.5,21.6z"/>
	<path fill="#2BABE1" d="M196.8,15.2c-2.1,0.3-4.2,0.2-6.2,0c-0.3-5.9-3.5-8.9-9.3-8.9c-18.5,0-37.1,0-55.6,0c-1,0-1.9,0-2.9,0.2
		c-4,1.1-6.5,4.2-6.5,8.7c0,13.8,0,27.5,0,41.3c0,0.4,0,0.8,0,1.2c0.4,4.3,3.8,7.5,8.1,7.7c0.6,0,1.3,0,1.9,0
		c2.2,0.1,3.3,1.2,3.4,3.5c0.1,2,0,4,0,6c0,0.6-0.2,1.3,0.3,2c1.7-0.9,2.6-2.6,4.1-3.5c0.8,0.2,1.2,0.9,1.6,1.7
		c0.6,1.1,1.1,2.3,1.7,3.4c-2.7,3.2-5.9,5.8-8.8,8.7c-0.9,0.9-2.2,1-3.3,0.4c-1.2-0.6-1.8-1.6-1.8-2.9c0-3.6,0-7.2,0-10.8
		c0-2.1,0-2.1-2.1-2.6c-6.9-1.7-11.3-7.3-11.3-14.5c0-14,0-28,0-42c0-8.4,6.3-14.7,14.7-14.7c18.7,0,37.4,0.2,56.1-0.1
		C189.2-0.1,196.8,5.8,196.8,15.2z"/>
	<path fill="#8EC643" d="M232.2,139.5c2.7,1.3,3.5,3.6,3.7,6.2c0.2,2.4,0.2,4.8,0,7.2c-0.4,3.5-2,5.3-5.4,6.2
		c-1.8,0.5-3.6,0.7-5.5,0.7c-10,0-20,0-30,0c-1.9,0-2,0-2-2c0-11.8,0-23.7,0-35.5c0-1.9,0-1.9,1.8-1.9c10.1,0,20.3,0,30.4,0
		c1.6,0,3.2,0.2,4.7,0.6c2.9,0.8,4.7,2.7,5.2,5.7c0.5,2.9,0.4,5.7,0,8.6C235,137.2,233.7,138.4,232.2,139.5z M201.3,140.1
		c0,3.4,0,6.7,0,10.1c0,2.4,0,2.4,2.3,2.4c6.6,0,13.1,0,19.7,0c1,0,1.9-0.1,2.8-0.3c1.5-0.4,2-0.9,2.1-2.5c0.1-1.3,0.1-2.6,0-3.8
		c-0.1-2-0.9-2.7-2.8-2.9c-1.3-0.1-2.6,0-3.8,0c-3.2,0-6.4,0-9.6,0c-0.6,0-1.5,0.2-1.5-0.7c-0.1-1.8-0.7-3.9,0.3-5.4
		c0.6-1,2.5-0.3,3.9-0.4c0.7-0.1,1.4,0,2.2,0c2.6,0,5.1,0,7.7,0c2.7-0.1,3.3-0.7,3.4-3.5c0-0.6,0-1.1,0-1.7c0-2.9-0.6-3.6-3.5-3.6
		c-7.1-0.1-14.2,0-21.3-0.1c-1.3,0-1.7,0.5-1.6,1.7C201.3,132.9,201.3,136.5,201.3,140.1z"/>
	<path fill="#2BABE1" d="M23.5,120.4c4.7,0,9.4,0,14.2,0c1.7,0,1.7,0,1.8,1.7c0,1.4-0.1,2.9,0,4.3c0.1,1.2-0.4,1.5-1.5,1.5
		c-3-0.1-5.9,0-8.9,0c-5.5,0-11,0-16.6,0c-0.8,0-1.6,0-2.4,0.2c-1.6,0.3-2.2,0.9-2.3,2.6c-0.4,4.9,0.3,5.8,5,5.8
		c5.2-0.1,10.4,0,15.6,0c1.8,0,3.5,0.1,5.2,0.6c2.9,0.8,4.8,2.5,5.4,5.5c0.7,3.8,0.7,7.6-0.1,11.4c-0.5,2.5-2.1,4.1-4.5,4.9
		c-1.9,0.7-3.9,1-5.9,1c-8.8,0-17.6,0-26.4,0c-2.1,0-2.1,0-2.1-2.2c0-1.1,0-2.2,0-3.4c0-2,0-2.1,2.2-2.1c8.2,0,16.5,0,24.7,0
		c4.4,0,5-0.6,4.9-5c-0.1-2.7-0.9-3.6-3.6-3.7c-5.9-0.1-11.8-0.1-17.8,0c-1.4,0-2.9-0.1-4.3-0.4c-3.4-0.7-5.3-2.6-5.8-6.1
		c-0.5-3.3-0.5-6.7,0.2-10c0.7-3.5,2.9-5.6,6.4-6.3c1.3-0.3,2.7-0.3,4.1-0.3C15.2,120.4,19.3,120.4,23.5,120.4z"/>
	<path fill="#8DC643" d="M261.6,120.4c2.6,0,5.3,0,7.9,0c1.4,0,2.9,0.1,4.3,0.3c5.2,0.9,7.7,3.4,8.5,8.6c0.2,1.3,0.3,2.7,0.3,4.1
		c0,4.5,0,9,0,13.4c0,1.6-0.2,3.2-0.5,4.8c-0.7,3.9-2.9,6.5-6.8,7.5c-2.1,0.5-4.2,0.7-6.4,0.7c-4.8,0-9.6,0-14.4,0
		c-2.3,0-4.6-0.2-6.9-0.9c-3.4-1-5.4-3.2-6.3-6.6c-0.4-1.8-0.6-3.6-0.6-5.5c0-4.6,0-9.1,0-13.7c0-1.9,0.2-3.8,0.7-5.7
		c0.8-3,2.6-5.1,5.6-6.1c2.2-0.8,4.5-1,6.8-1C256.5,120.4,259.1,120.4,261.6,120.4z M261.6,128.1
		C261.6,128.1,261.6,128.1,261.6,128.1c-2.3-0.1-4.6-0.1-7-0.1c-0.3,0-0.6,0-1,0.1c-3.3,0.2-4.5,1.4-4.6,4.6c-0.1,5-0.1,9.9,0,14.9
		c0.1,3,1.2,4.1,4.2,4.5c0.6,0.1,1.1,0.1,1.7,0.1c4.5,0,8.9,0,13.4,0c0.9,0,1.7-0.1,2.6-0.3c1.9-0.3,3-1.5,3.2-3.4
		c0.1-0.4,0.2-0.8,0.2-1.2c0.1-5.1,0.4-10.2-0.2-15.3c-0.3-2.7-1.5-3.8-4.2-3.9C267.2,128,264.4,128.1,261.6,128.1z"/>
	<path fill="#2AABE1" d="M64.7,120.4c2.6,0,5.3,0,7.9,0c1.4,0,2.7,0.1,4.1,0.3c5.5,0.8,8,3.3,9,8.7c0.2,1.3,0.3,2.7,0.3,4.1
		c0,4.4,0,8.8,0,13.2c0,1.8-0.2,3.7-0.6,5.5c-0.8,3.6-3,5.9-6.6,6.9c-1.9,0.5-3.9,0.8-5.9,0.8c-5.3,0-10.6,0-15.8,0
		c-1.9,0-3.8-0.3-5.7-0.7c-3.7-1-5.9-3.3-6.8-7c-0.4-1.9-0.5-3.8-0.5-5.7c0-4.2,0-8.3,0-12.5c0-2.2,0.1-4.3,0.7-6.4
		c0.8-3,2.6-5,5.6-6c2.2-0.8,4.5-0.9,6.8-1C59.8,120.4,62.2,120.4,64.7,120.4z M64.9,128.1C64.9,128.1,64.9,128.1,64.9,128.1
		c-2.9,0-5.8-0.1-8.6,0.1c-2.5,0.1-3.6,1.3-3.9,3.7c-0.1,0.7-0.1,1.4-0.1,2.2c0,4,0,8,0,12c0,4.9,1.2,6.1,6.1,6.1
		c4.4,0,8.8,0,13.2,0c4.7,0,6-1.3,6.2-5.9c0-0.3,0-0.6,0-1c0-3.5,0-7,0-10.5c0-0.9-0.1-1.8-0.2-2.6c-0.5-2.9-1.5-3.9-4.5-4
		C70.4,128,67.6,128.1,64.9,128.1z"/>
	<path fill="#2BABE1" d="M145.1,140.2c0-5.8,0-11.7,0-17.5c0-2.3,0-2.3,2.2-2.3c9.5,0,19,0,28.5,0c1.8,0,3.7,0.2,5.5,0.7
		c3.4,0.9,5.6,3.1,6.3,6.5c0.9,4.7,0.9,9.4,0.1,14.1c-0.6,3.3-2.7,5.3-6,6.1c-2.4,0.6-4.9,0.7-7.4,0.7c-6.2,0-12.3,0-18.5,0
		c-2.4,0-2.4,0-2.4,2.4c0,2.2,0,4.3,0,6.5c0,2.8-0.1,2.4-2.5,2.4c-1.2,0-2.4,0-3.6,0c-2.1,0-2.1,0-2.1-2.1
		C145.1,151.9,145.1,146,145.1,140.2z M165.2,141.3c1.6,0,3.2,0,4.8,0c2.1,0,4.2,0,6.2-0.1c2.3-0.2,3.1-1,3.5-3.2
		c0.4-2.2,0.3-4.4-0.1-6.7c-0.3-1.8-1.5-2.7-3.2-3c-0.6-0.1-1.3-0.2-1.9-0.2c-6.5,0-13,0-19.4,0c-1.8,0-1.8,0.1-1.8,1.7
		c0,3.3,0,6.6,0,9.8c0,1.6,0.1,1.7,1.8,1.7C158.5,141.3,161.9,141.3,165.2,141.3z"/>
	<path fill="#8EC643" d="M336,120.9c-3.5,3.3-6.9,6.6-10.4,9.9c-2.5,2.4-5,4.7-7.5,7.1c-1.5,1.4-1.5,1.5,0,3
		c5.7,5.7,11.5,11.4,17.2,17.1c0.4,0.4,1,0.8,1.3,1.4c-0.3,0.7-1,0.4-1.4,0.4c-2.7,0-5.4,0-8.2,0c-1.3,0-2.2-0.4-3.1-1.3
		c-4-4.1-8.1-8.2-12.2-12.2c-1.5-1.5-1.5-1.4-3,0c-4,4-7.9,7.9-11.9,11.9c-1.1,1.1-2.2,1.7-3.8,1.6c-2.9-0.1-5.7,0-8.8,0
		c0.3-1.2,1.2-1.7,1.8-2.4c5.4-5.2,10.8-10.5,16.2-15.7c0.6-0.6,1.1-1.1,1.7-1.7c0.5-0.5,0.5-1,0-1.4c-0.3-0.3-0.6-0.5-0.9-0.8
		c-5.5-5.3-11.1-10.6-16.6-15.9c-0.4-0.4-0.9-0.6-0.9-1.5c3.5,0,7,0,10.5,0c1,0,1.6,0.7,2.2,1.3c3.7,3.7,7.3,7.4,11,11.1
		c1.5,1.5,1.5,1.5,3,0c3.9-3.7,7.9-7.5,11.8-11.3c0.9-0.8,1.8-1.2,3-1.2c2.9,0.1,5.9,0,8.8,0C335.9,120.5,336,120.7,336,120.9z"/>
	<path fill="#2AABE1" d="M141.4,159.8c-2.8,0-5.5,0-8.2,0c-1,0-1.4-0.6-1.8-1.3c-1.2-2.1-2.5-4.1-3.6-6.2c-0.6-1.1-1.3-1.6-2.6-1.6
		c-7.3,0.1-14.5,0.1-21.8,0c-1.2,0-1.9,0.4-2.5,1.4c-1.1,2.1-2.4,4.1-3.5,6.3c-0.6,1-1.3,1.5-2.5,1.4c-2.5-0.1-4.9,0-7.4,0
		c-0.4-0.8,0.1-1.2,0.4-1.6c6.7-11.5,13.5-23,20.2-34.6c1.6-2.7,3.6-4.3,7-4.1c2.4,0.2,4,1.4,5.2,3.3c1.2,1.8,2.2,3.7,3.3,5.6
		c5.7,9.7,11.3,19.5,17,29.2C140.9,158.2,141.4,158.8,141.4,159.8z M105.6,143.8c6,0,11.5,0,17.1,0c-0.9-2.5-7.4-13.7-8.6-14.9
		C111.3,133.8,108.5,138.6,105.6,143.8z"/>
	<path fill="#2792BE" d="M137.4,78.4c-0.6-1.1-1.1-2.3-1.7-3.4c-0.4-0.7-0.7-1.4-1.6-1.7c1.9-2.1,4-4.1,6.1-6.1
		c0.6,1.2,0.2,2.5,0.3,3.8c0.1,1.5,0.1,3,0.1,4.5C139.5,76.4,138.7,77.7,137.4,78.4z"/>
	<path fill="#FDFEFE" d="M140.3,67.3c-2.2,1.9-4.2,3.9-6.1,6.1c-1.5,0.9-2.5,2.6-4.1,3.5c-0.5-0.7-0.3-1.4-0.3-2c0-2,0-4,0-6
		c-0.1-2.3-1.2-3.4-3.4-3.5c-0.6,0-1.3,0-1.9,0c-4.3-0.2-7.7-3.4-8.1-7.7c0-0.4,0-0.8,0-1.2c0-13.8,0-27.5,0-41.3
		c0-4.5,2.4-7.6,6.5-8.7c0.9-0.2,1.9-0.2,2.9-0.2c18.5,0,37.1,0,55.6,0c5.8,0,9,3.1,9.3,8.9c-1,0-1.9,0.1-2.9,0.1
		c-10.9,0-21.9,0-32.8,0c-6.5,0-11.9,4.1-13.8,10.3c-0.5,1.7-0.7,3.4-0.7,5.2c0,11.2,0,22.4,0,33.6
		C140.4,65.4,140.3,66.3,140.3,67.3z"/>
	<path fill="#FEFEFE" d="M196.8,21.6c5.4,0,10.9-0.2,16.3,0c4.2,0.1,7.7,3.5,7.7,7.7c0.1,14.5,0.1,29,0,43.4c0,4.2-3.5,7.5-7.9,7.9
		c-0.6,0.1-1.3,0-1.9,0c-2.4,0.1-3.4,1.1-3.5,3.6c0,2.2,0,4.3,0,6.5c0,0.4,0,0.8-0.1,1.2c-0.8,0.3-1.1-0.4-1.4-0.7
		c-3-2.9-6.1-5.7-9-8.7c-1.3-1.4-2.8-1.9-4.7-1.9c-12.2,0.1-24.3,0-36.5,0c-2.4,0-4.6-0.5-6.4-2.2c-2-1.8-3.1-4.1-2.6-6.9
		c1.6,0,3.3-0.1,4.9-0.1c0.3,0,0.6,0.1,1,0.1c10,0,20,0,30,0c0.8,0,1.6-0.1,2.4-0.2c7.1-1.5,11.7-7.3,11.7-14.9
		C196.8,44.8,196.8,33.2,196.8,21.6z"/>
	<path fill="#FAFDFC" d="M146.7,65.4c0-0.6-0.1-1.3-0.1-1.9c0-10.9,0-21.8,0-32.6c0-1.4,0.1-2.7,0.6-4c1.3-3.3,4.2-5.3,8.1-5.3
		c10.8,0,21.6,0,32.4,0c1,0,1.9,0.1,2.9,0.1c0,11.5,0,23,0,34.5c0,2.9-0.6,5.6-3.3,7.3c0-4.5,0-9.1-0.1-13.6c0-0.6,0-1.3-0.1-1.9
		c-0.2-1.5-1-2.2-2.6-2.3c-1.8-0.1-3.6-0.3-4.8,1.6c-2.4-2.1-5-2.2-6.8-0.2c1.4,0.5,3.3-0.2,4.2,1.6c-0.3,0.3-0.5,0.1-0.9,0.1
		c-2.8-0.6-5.6-1.7-7.7,1.4c-0.5,0.7-1,0.1-1.3-0.3c-0.7-0.9-1.3-1.8-2.7-1.6c-0.8,0.1-1.6,0-2.4,0c-2.4,0.2-3.6,1.5-3.6,3.9
		c-0.1,3.2-0.1,6.4,0,9.6c0,1.7,0.1,1.7,1.7,1.8c5.2,0,10.4,0,15.6,0c1.8,0,1.9,0,1.9-1.9c-0.1-4.3,0.4-8.7-0.5-13
		c1.5,0.7,1.5,2.1,1.5,3.5c0,3.2,0,6.4,0,9.6c0,1.8,0,1.8,1.9,1.8c2.2,0,4.5,0,6.7,0c-1.6,1.8-3.7,2-5.9,2c-9.7,0-19.3,0-29,0
		c-0.9,0-1.7,0.1-2.6,0.1C148.8,65.5,147.7,65.4,146.7,65.4z M174.8,40.6c-0.4-0.4-0.3-1-0.5-1.6c-0.8-3.2-3.7-5.2-7-4.9
		c-3,0.3-5.5,2.9-5.6,5.9c-0.2,3.5,2,6.1,5.5,6.8c3,0.5,6.1-1.5,7-4.5C174.4,41.8,174.3,41.1,174.8,40.6c0.4,0.6,0.6,1.4,1.1,2
		c1.4,1.9,3.6,2.5,5.7,1.6c2.1-0.8,3.4-3,3-5.1c-0.4-2.4-2.1-4.1-4.4-4.3c-2.1-0.2-4.2,1.1-5,3.2C174.9,38.9,174.8,39.7,174.8,40.6z
		 M156.4,47.1c-1.8-1.7-1.8-1.7-4.1-1.6c-2.3,0.1-3,0.8-3.1,3c0,1.4,0,2.9,0,4.3c0,2.8-0.2,5.6-0.2,8.4c0,2.1,0,2.1,2.2,2.1
		c1.4,0,2.9,0,4.3,0c2,0,2,0,2-2c0-3.1,0-6.2,0-9.3c0.1-2.9,1.4-4.4,4.2-4.9c0.5-0.1,1.1,0.1,1.5-0.4
		C161.4,45,158.7,45.1,156.4,47.1z M151.6,39.7c0,2.8,2,4.9,4.7,5c2.6,0.1,5-2.1,5-4.7c0.1-2.8-2.2-5.1-4.9-5.1
		C153.8,34.8,151.7,37,151.6,39.7z"/>
	<path fill="#2CABE1" d="M187.3,63.4c2.7-1.7,3.3-4.4,3.3-7.3c0-11.5,0-23,0-34.5c2.1-0.2,4.2-0.1,6.2,0c0,11.6,0,23.2,0,34.8
		c0,7.6-4.6,13.4-11.7,14.9c-0.8,0.2-1.6,0.2-2.4,0.2c-10,0-20,0-30,0c-0.3,0-0.6-0.1-1-0.1c0.1-1.2-0.2-2.3-0.8-3.4
		c-0.5-0.8-0.8-1.7-1.2-2.6c0.9,0,1.7-0.1,2.6-0.1c9.7,0,19.3,0,29,0C183.6,65.4,185.7,65.2,187.3,63.4
		C187.3,63.4,187.3,63.4,187.3,63.4z"/>
	<path fill="#2792BE" d="M149.8,65.5c0.4,0.9,0.7,1.7,1.2,2.6c0.6,1.1,0.9,2.2,0.8,3.4c-1.6,0-3.3,0.1-4.9,0.1
		c-0.5-2.1-0.3-4.1-0.2-6.2C147.7,65.4,148.8,65.5,149.8,65.5z"/>
	<path fill="#FDFEFC" d="M201.3,140.1c0-3.6,0-7.2,0-10.8c0-1.2,0.4-1.7,1.6-1.7c7.1,0.1,14.2,0,21.3,0.1c2.9,0,3.5,0.7,3.5,3.6
		c0,0.6,0,1.1,0,1.7c-0.1,2.8-0.6,3.4-3.4,3.5c-2.6,0.1-5.1,0-7.7,0c-0.7,0-1.4,0-2.2,0c-1.3,0.1-3.2-0.7-3.9,0.4
		c-0.9,1.5-0.3,3.6-0.3,5.4c0,0.9,0.9,0.7,1.5,0.7c3.2,0,6.4,0,9.6,0c1.3,0,2.6,0,3.8,0c1.9,0.1,2.7,0.9,2.8,2.9
		c0.1,1.3,0.1,2.6,0,3.8c-0.1,1.6-0.5,2.1-2.1,2.5c-0.9,0.2-1.9,0.3-2.8,0.3c-6.6,0-13.1,0-19.7,0c-2.3,0-2.3,0-2.3-2.4
		C201.3,146.8,201.3,143.4,201.3,140.1z"/>
	<path fill="#FEFEFE" d="M261.6,128.1c2.8,0,5.6-0.1,8.4,0c2.8,0.1,3.9,1.2,4.2,3.9c0.6,5.1,0.3,10.2,0.2,15.3
		c0,0.4-0.1,0.8-0.2,1.2c-0.3,1.9-1.3,3-3.2,3.4c-0.9,0.2-1.7,0.3-2.6,0.3c-4.5,0-8.9,0-13.4,0c-0.6,0-1.1,0-1.7-0.1
		c-3-0.4-4.1-1.5-4.2-4.5c-0.1-5-0.1-9.9,0-14.9c0.1-3.2,1.3-4.4,4.6-4.6c0.3,0,0.6-0.1,1-0.1C257,128.1,259.3,128.1,261.6,128.1
		C261.6,128.1,261.6,128.1,261.6,128.1z"/>
	<path fill="#FDFEFF" d="M64.9,128.1c2.7,0,5.4-0.1,8.1,0c2.9,0.1,3.9,1.1,4.5,4c0.2,0.9,0.2,1.7,0.2,2.6c0,3.5,0,7,0,10.5
		c0,0.3,0,0.6,0,1c-0.2,4.6-1.5,5.9-6.2,5.9c-4.4,0-8.8,0-13.2,0c-4.9,0-6-1.2-6.1-6.1c0-4,0-8,0-12c0-0.7,0-1.4,0.1-2.2
		c0.3-2.4,1.4-3.6,3.9-3.7C59.2,128.1,62.1,128.2,64.9,128.1C64.9,128.1,64.9,128.1,64.9,128.1z"/>
	<path fill="#FDFEFF" d="M165.2,141.3c-3.4,0-6.7,0-10.1,0c-1.8,0-1.8-0.1-1.8-1.7c0-3.3,0-6.6,0-9.8c0-1.6,0.1-1.7,1.8-1.7
		c6.5,0,13,0,19.4,0c0.6,0,1.3,0,1.9,0.2c1.7,0.3,2.9,1.2,3.2,3c0.4,2.2,0.5,4.5,0.1,6.7c-0.4,2.2-1.3,3-3.5,3.2
		c-2.1,0.2-4.2,0.1-6.2,0.1C168.4,141.3,166.8,141.3,165.2,141.3z"/>
	<path fill="#F6FBFE" d="M105.6,143.8c2.9-5.2,5.7-10,8.5-14.9c1.3,1.1,7.8,12.4,8.6,14.9C117.1,143.8,111.6,143.8,105.6,143.8z"/>
	<path fill="#8DC643" d="M177.2,48.5c0.9,4.3,0.5,8.7,0.5,13c0,1.8,0,1.9-1.9,1.9c-5.2,0-10.4,0-15.6,0c-1.7,0-1.7-0.1-1.7-1.8
		c0-3.2,0-6.4,0-9.6c0-2.4,1.2-3.7,3.6-3.9c0.8-0.1,1.6,0.1,2.4,0c1.4-0.2,2,0.8,2.7,1.6c0.4,0.4,0.8,1,1.3,0.3
		c2.1-3.1,5-1.9,7.7-1.4C176.7,48.7,176.9,48.8,177.2,48.5L177.2,48.5z"/>
	<path fill="#2CABE1" d="M177.2,48.6c-0.8-1.9-2.7-1.1-4.2-1.6c1.8-2,4.4-1.9,6.8,0.2c1.1-1.8,3-1.7,4.8-1.6
		c1.6,0.1,2.3,0.8,2.6,2.3c0.1,0.6,0.1,1.3,0.1,1.9c0,4.5,0,9.1,0.1,13.6c0,0,0,0,0,0c-2.2,0-4.5,0-6.7,0c-1.9,0-1.9,0-1.9-1.8
		c0-3.2,0-6.4,0-9.6C178.7,50.7,178.6,49.3,177.2,48.6C177.2,48.5,177.2,48.6,177.2,48.6z"/>
	<path fill="#2BABE1" d="M156.4,47.1c2.3-2,5-2.2,6.9-0.4c-0.4,0.5-1,0.3-1.5,0.4c-2.8,0.5-4.2,2-4.2,4.9c-0.1,3.1,0,6.2,0,9.3
		c0,1.9,0,2-2,2c-1.4,0-2.9,0-4.3,0c-2.1,0-2.2,0-2.2-2.1c0-2.8,0.1-5.6,0.2-8.4c0-1.4,0-2.9,0-4.3c0.1-2.3,0.8-2.9,3.1-3
		C154.6,45.5,154.6,45.5,156.4,47.1z"/>
	<path fill="#8EC643" d="M174.8,40.6c-0.5,0.5-0.3,1.2-0.5,1.8c-0.9,3-4,5-7,4.5c-3.5-0.6-5.6-3.3-5.5-6.8c0.1-3,2.6-5.6,5.6-5.9
		c3.3-0.4,6.2,1.7,7,4.9C174.5,39.6,174.4,40.2,174.8,40.6C174.8,40.6,174.8,40.6,174.8,40.6z"/>
	<path fill="#2CABE1" d="M174.8,40.6C174.8,40.6,174.8,40.6,174.8,40.6c0-0.8,0.1-1.7,0.4-2.5c0.8-2.1,2.9-3.5,5-3.2
		c2.3,0.3,4.1,1.9,4.4,4.3c0.3,2.1-1,4.3-3,5.1c-2.1,0.8-4.4,0.2-5.7-1.6C175.4,42,175.1,41.3,174.8,40.6z"/>
	<path fill="#2CABE1" d="M151.6,39.7c0-2.7,2.2-4.9,4.8-4.9c2.7,0,5,2.4,4.9,5.1c-0.1,2.6-2.4,4.8-5,4.7
		C153.6,44.6,151.6,42.4,151.6,39.7z"/>
</g>
</svg>
